<svg width="411" height="512" viewBox="0 0 411 512" fill="none" xmlns="http://www.w3.org/2000/svg">
<path d="M123.9 2.58635L12.8557 150.19C-13.7098 185.501 26.8791 231.994 65.4532 210.438L220.545 123.769C259.945 101.751 303.717 144.759 282.397 184.541L193.16 351.045C171.428 391.594 222.875 431.565 256.794 400.485L295.636 364.895C336.106 327.813 395.228 381.4 362.289 425.308L297.254 512L293.813 509.418L358.848 422.726C388.649 383 335.158 334.516 298.543 368.066L259.7 403.657C222.21 438.008 165.348 393.83 189.368 349.013L278.605 182.509C297.895 146.516 258.291 107.604 222.644 127.524L67.5522 214.194C24.9176 238.019 -19.9441 186.632 9.41773 147.603L120.462 0L123.9 2.58635Z" fill="#262726"/>
<path d="M123.843 3.58753L52.5096 98.0111C25.8461 133.305 66.4443 179.903 105.058 158.325L259.265 72.151C298.665 50.1336 342.437 93.1421 321.116 132.923L231.88 299.425C210.148 339.974 261.594 379.945 295.514 348.866L334.356 313.275C374.826 276.193 433.947 329.781 401.008 373.689L335.974 460.38L332.532 457.798L397.567 371.107C427.369 331.381 373.878 282.897 337.263 316.447L298.42 352.038C260.93 386.389 204.068 342.21 228.088 297.393L317.324 130.891C336.614 94.8986 297.011 55.9859 261.363 75.9066L107.157 162.081C64.4783 185.93 19.6067 134.428 49.0767 95.418L120.411 0.994039L123.843 3.58753Z" fill="#262726"/>
</svg>
